<svg width="310" height="31" viewBox="0 0 310 31" fill="none" xmlns="http://www.w3.org/2000/svg">
<path d="M0.40625 24V2.18182H9.82386C11.4432 2.18182 12.8601 2.47656 14.0746 3.06605C15.2891 3.65554 16.2337 4.50426 16.9084 5.61222C17.5831 6.72017 17.9205 8.04829 17.9205 9.59659C17.9205 11.1591 17.5724 12.4766 16.8764 13.549C16.1875 14.6214 15.218 15.4311 13.968 15.978C12.7251 16.5249 11.2727 16.7983 9.6108 16.7983H3.9858V12.196H8.41761C9.11364 12.196 9.70668 12.1108 10.1967 11.9403C10.6939 11.7628 11.0739 11.4822 11.3366 11.0987C11.6065 10.7152 11.7415 10.2145 11.7415 9.59659C11.7415 8.97159 11.6065 8.46378 11.3366 8.07315C11.0739 7.67543 10.6939 7.38423 10.1967 7.19957C9.70668 7.00781 9.11364 6.91193 8.41761 6.91193H6.32955V24H0.40625ZM13.1903 13.9858L18.6449 24H12.2102L6.88352 13.9858H13.1903ZM28.0625 24.2983C26.2869 24.2983 24.767 23.9467 23.5028 23.2436C22.2386 22.5334 21.2692 21.5462 20.5945 20.282C19.9197 19.0107 19.5824 17.5369 19.5824 15.8608C19.5824 14.1847 19.9197 12.7145 20.5945 11.4503C21.2692 10.179 22.2386 9.19176 23.5028 8.48864C24.767 7.77841 26.2869 7.4233 28.0625 7.4233C29.8381 7.4233 31.358 7.77841 32.6222 8.48864C33.8864 9.19176 34.8558 10.179 35.5305 11.4503C36.2053 12.7145 36.5426 14.1847 36.5426 15.8608C36.5426 17.5369 36.2053 19.0107 35.5305 20.282C34.8558 21.5462 33.8864 22.5334 32.6222 23.2436C31.358 23.9467 29.8381 24.2983 28.0625 24.2983ZM28.1051 19.9517C28.6023 19.9517 29.032 19.7848 29.3942 19.451C29.7564 19.1172 30.0369 18.6413 30.2358 18.0234C30.4347 17.4055 30.5341 16.6705 30.5341 15.8182C30.5341 14.9588 30.4347 14.2237 30.2358 13.6129C30.0369 12.995 29.7564 12.5192 29.3942 12.1854C29.032 11.8516 28.6023 11.6847 28.1051 11.6847C27.5795 11.6847 27.1286 11.8516 26.7521 12.1854C26.3757 12.5192 26.0881 12.995 25.8892 13.6129C25.6903 14.2237 25.5909 14.9588 25.5909 15.8182C25.5909 16.6705 25.6903 17.4055 25.8892 18.0234C26.0881 18.6413 26.3757 19.1172 26.7521 19.451C27.1286 19.7848 27.5795 19.9517 28.1051 19.9517ZM43.4886 24.2557C42.4446 24.2557 41.5213 24.0852 40.7188 23.7443C39.9233 23.3963 39.2983 22.8707 38.8438 22.1676C38.3892 21.4645 38.1619 20.5696 38.1619 19.483C38.1619 18.5881 38.3146 17.8246 38.62 17.1925C38.9254 16.5533 39.3516 16.0312 39.8984 15.6264C40.4453 15.2216 41.081 14.9126 41.8054 14.6996C42.5369 14.4865 43.3253 14.348 44.1705 14.2841C45.0866 14.2131 45.8217 14.1278 46.3757 14.0284C46.9368 13.9219 47.3416 13.7763 47.5902 13.5916C47.8388 13.3999 47.9631 13.1477 47.9631 12.8352V12.7926C47.9631 12.3665 47.7997 12.0398 47.473 11.8125C47.1463 11.5852 46.7273 11.4716 46.2159 11.4716C45.6548 11.4716 45.1967 11.5959 44.8416 11.8445C44.4936 12.0859 44.2841 12.4588 44.2131 12.9631H38.8011C38.8722 11.9687 39.1882 11.0526 39.7493 10.2145C40.3175 9.36932 41.1449 8.6946 42.2315 8.19034C43.3182 7.67898 44.6747 7.4233 46.3011 7.4233C47.473 7.4233 48.5241 7.56179 49.4545 7.83878C50.3849 8.10866 51.1768 8.48864 51.8303 8.97869C52.4837 9.46165 52.9808 10.0298 53.3217 10.6832C53.6697 11.3295 53.8438 12.0327 53.8438 12.7926V24H48.3466V21.6989H48.2188C47.892 22.3097 47.4943 22.8033 47.0256 23.1797C46.5639 23.5561 46.0348 23.8295 45.4382 24C44.8487 24.1705 44.1989 24.2557 43.4886 24.2557ZM45.4062 20.5483C45.8537 20.5483 46.2727 20.456 46.6634 20.2713C47.0611 20.0866 47.3842 19.8203 47.6328 19.4723C47.8814 19.1243 48.0057 18.7017 48.0057 18.2045V16.8409C47.8494 16.9048 47.6825 16.9652 47.505 17.022C47.3345 17.0788 47.1499 17.1321 46.951 17.1818C46.7592 17.2315 46.5533 17.2777 46.3331 17.3203C46.12 17.3629 45.8963 17.402 45.6619 17.4375C45.2074 17.5085 44.8345 17.6257 44.5433 17.7891C44.2592 17.9453 44.0462 18.1406 43.9041 18.375C43.7692 18.6023 43.7017 18.858 43.7017 19.142C43.7017 19.5966 43.8615 19.9446 44.1811 20.1861C44.5007 20.4276 44.9091 20.5483 45.4062 20.5483ZM62.5769 24.2131C61.4121 24.2131 60.3397 23.9077 59.3596 23.2969C58.3865 22.6861 57.6053 21.7592 57.0158 20.5163C56.4334 19.2734 56.1422 17.7074 56.1422 15.8182C56.1422 13.8437 56.4476 12.2386 57.0584 11.0028C57.6763 9.76704 58.4718 8.86151 59.4448 8.28622C60.4249 7.71094 61.4547 7.4233 62.5343 7.4233C63.3439 7.4233 64.0542 7.56534 64.665 7.84943C65.2757 8.12642 65.7871 8.49929 66.199 8.96804C66.611 9.42969 66.9235 9.9375 67.1365 10.4915H67.2218V2.18182H73.1025V24H67.2644V21.3153H67.1365C66.9093 21.8693 66.5826 22.3665 66.1564 22.8068C65.7374 23.2401 65.226 23.5845 64.6223 23.8402C64.0257 24.0888 63.3439 24.2131 62.5769 24.2131ZM64.7502 19.696C65.29 19.696 65.7516 19.5398 66.1351 19.2273C66.5257 18.9077 66.824 18.4602 67.03 17.8849C67.2431 17.3026 67.3496 16.6136 67.3496 15.8182C67.3496 15.0085 67.2431 14.3161 67.03 13.7408C66.824 13.1584 66.5257 12.7145 66.1351 12.4091C65.7516 12.0966 65.29 11.9403 64.7502 11.9403C64.2104 11.9403 63.7488 12.0966 63.3652 12.4091C62.9888 12.7145 62.6976 13.1584 62.4917 13.7408C62.2928 14.3161 62.1934 15.0085 62.1934 15.8182C62.1934 16.6278 62.2928 17.3239 62.4917 17.9062C62.6976 18.4815 62.9888 18.9254 63.3652 19.2379C63.7488 19.5433 64.2104 19.696 64.7502 19.696ZM75.9895 24V7.63636H81.5719V10.7472H81.7424C82.0833 9.72443 82.6657 8.91477 83.4895 8.31818C84.3134 7.72159 85.2935 7.4233 86.4299 7.4233C87.5804 7.4233 88.5712 7.72869 89.4022 8.33949C90.2331 8.94318 90.7338 9.74574 90.9043 10.7472H91.0748C91.3517 9.74574 91.9412 8.94318 92.8432 8.33949C93.7452 7.72869 94.8034 7.4233 96.0179 7.4233C97.5875 7.4233 98.8588 7.92756 99.8319 8.93608C100.812 9.9446 101.302 11.2869 101.302 12.9631V24H95.4213V14.4545C95.4213 13.7372 95.2402 13.1761 94.878 12.7713C94.5158 12.3594 94.0293 12.1534 93.4185 12.1534C92.8148 12.1534 92.3354 12.3594 91.9803 12.7713C91.6323 13.1761 91.4583 13.7372 91.4583 14.4545V24H85.8333V14.4545C85.8333 13.7372 85.6522 13.1761 85.29 12.7713C84.9277 12.3594 84.4412 12.1534 83.8304 12.1534C83.4256 12.1534 83.0776 12.2457 82.7864 12.4304C82.4952 12.6151 82.2679 12.8814 82.1046 13.2294C81.9483 13.5703 81.8702 13.9787 81.8702 14.4545V24H75.9895ZM108.762 24.2557C107.718 24.2557 106.795 24.0852 105.992 23.7443C105.197 23.3963 104.572 22.8707 104.117 22.1676C103.663 21.4645 103.435 20.5696 103.435 19.483C103.435 18.5881 103.588 17.8246 103.893 17.1925C104.199 16.5533 104.625 16.0312 105.172 15.6264C105.719 15.2216 106.354 14.9126 107.079 14.6996C107.81 14.4865 108.599 14.348 109.444 14.2841C110.36 14.2131 111.095 14.1278 111.649 14.0284C112.21 13.9219 112.615 13.7763 112.864 13.5916C113.112 13.3999 113.237 13.1477 113.237 12.8352V12.7926C113.237 12.3665 113.073 12.0398 112.746 11.8125C112.42 11.5852 112.001 11.4716 111.489 11.4716C110.928 11.4716 110.47 11.5959 110.115 11.8445C109.767 12.0859 109.558 12.4588 109.487 12.9631H104.075C104.146 11.9687 104.462 11.0526 105.023 10.2145C105.591 9.36932 106.418 8.6946 107.505 8.19034C108.592 7.67898 109.948 7.4233 111.575 7.4233C112.746 7.4233 113.798 7.56179 114.728 7.83878C115.658 8.10866 116.45 8.48864 117.104 8.97869C117.757 9.46165 118.254 10.0298 118.595 10.6832C118.943 11.3295 119.117 12.0327 119.117 12.7926V24H113.62V21.6989H113.492C113.165 22.3097 112.768 22.8033 112.299 23.1797C111.837 23.5561 111.308 23.8295 110.712 24C110.122 24.1705 109.472 24.2557 108.762 24.2557ZM110.68 20.5483C111.127 20.5483 111.546 20.456 111.937 20.2713C112.335 20.0866 112.658 19.8203 112.906 19.4723C113.155 19.1243 113.279 18.7017 113.279 18.2045V16.8409C113.123 16.9048 112.956 16.9652 112.778 17.022C112.608 17.0788 112.423 17.1321 112.224 17.1818C112.033 17.2315 111.827 17.2777 111.607 17.3203C111.393 17.3629 111.17 17.402 110.935 17.4375C110.481 17.5085 110.108 17.6257 109.817 17.7891C109.533 17.9453 109.32 18.1406 109.178 18.375C109.043 18.6023 108.975 18.858 108.975 19.142C108.975 19.5966 109.135 19.9446 109.455 20.1861C109.774 20.4276 110.183 20.5483 110.68 20.5483ZM121.927 30.1364V7.63636H127.765V10.4915H127.893C128.106 9.9375 128.419 9.42969 128.83 8.96804C129.242 8.49929 129.754 8.12642 130.365 7.84943C130.975 7.56534 131.686 7.4233 132.495 7.4233C133.575 7.4233 134.601 7.71094 135.574 8.28622C136.554 8.86151 137.35 9.76704 137.96 11.0028C138.578 12.2386 138.887 13.8437 138.887 15.8182C138.887 17.7074 138.593 19.2734 138.003 20.5163C137.421 21.7592 136.639 22.6861 135.659 23.2969C134.686 23.9077 133.617 24.2131 132.453 24.2131C131.686 24.2131 131 24.0888 130.396 23.8402C129.8 23.5845 129.289 23.2401 128.862 22.8068C128.443 22.3665 128.12 21.8693 127.893 21.3153H127.808V30.1364H121.927ZM127.68 15.8182C127.68 16.6136 127.783 17.3026 127.989 17.8849C128.202 18.4602 128.5 18.9077 128.884 19.2273C129.274 19.5398 129.74 19.696 130.279 19.696C130.819 19.696 131.277 19.5433 131.654 19.2379C132.037 18.9254 132.328 18.4815 132.527 17.9062C132.733 17.3239 132.836 16.6278 132.836 15.8182C132.836 15.0085 132.733 14.3161 132.527 13.7408C132.328 13.1584 132.037 12.7145 131.654 12.4091C131.277 12.0966 130.819 11.9403 130.279 11.9403C129.74 11.9403 129.274 12.0966 128.884 12.4091C128.5 12.7145 128.202 13.1584 127.989 13.7408C127.783 14.3161 127.68 15.0085 127.68 15.8182ZM144.547 24.3409C143.723 24.3409 143.016 24.0533 142.427 23.478C141.844 22.8956 141.557 22.1889 141.564 21.358C141.557 20.5483 141.844 19.8558 142.427 19.2805C143.016 18.7053 143.723 18.4176 144.547 18.4176C145.328 18.4176 146.017 18.7053 146.614 19.2805C147.217 19.8558 147.523 20.5483 147.53 21.358C147.523 21.9119 147.377 22.4162 147.093 22.8707C146.816 23.3182 146.454 23.6768 146.006 23.9467C145.559 24.2095 145.072 24.3409 144.547 24.3409ZM144.547 13.3466C143.723 13.3466 143.016 13.0589 142.427 12.4837C141.844 11.9013 141.557 11.1946 141.564 10.3636C141.557 9.55398 141.844 8.86151 142.427 8.28622C143.016 7.71094 143.723 7.4233 144.547 7.4233C145.328 7.4233 146.017 7.71094 146.614 8.28622C147.217 8.86151 147.523 9.55398 147.53 10.3636C147.523 10.9176 147.377 11.4219 147.093 11.8764C146.816 12.3239 146.454 12.6825 146.006 12.9524C145.559 13.2152 145.072 13.3466 144.547 13.3466Z" fill="#FAFF08"/>
<path d="M169.529 2.18182H175.452V16.1591C175.452 17.821 175.055 19.2592 174.259 20.4737C173.471 21.6811 172.37 22.6151 170.957 23.2756C169.543 23.929 167.903 24.2557 166.035 24.2557C164.153 24.2557 162.505 23.929 161.092 23.2756C159.678 22.6151 158.577 21.6811 157.789 20.4737C157.008 19.2592 156.617 17.821 156.617 16.1591V2.18182H162.54V15.6477C162.54 16.3224 162.69 16.9261 162.988 17.4588C163.286 17.9844 163.698 18.3963 164.224 18.6946C164.756 18.9929 165.36 19.142 166.035 19.142C166.717 19.142 167.32 18.9929 167.846 18.6946C168.371 18.3963 168.783 17.9844 169.082 17.4588C169.38 16.9261 169.529 16.3224 169.529 15.6477V2.18182ZM184.617 2.18182L188.197 8.53125H188.367L191.989 2.18182H198.594L192.074 13.0909L198.85 24H192.074L188.367 17.5227H188.197L184.489 24H177.756L184.447 13.0909L177.969 2.18182H184.617ZM215.52 24H207.125V2.18182H215.435C217.679 2.18182 219.618 2.61861 221.251 3.49219C222.892 4.35866 224.156 5.60866 225.044 7.24219C225.939 8.86861 226.386 10.8182 226.386 13.0909C226.386 15.3636 225.942 17.3168 225.055 18.9503C224.167 20.5767 222.91 21.8267 221.283 22.7003C219.657 23.5668 217.736 24 215.52 24ZM213.048 18.9716H215.307C216.386 18.9716 217.306 18.7976 218.066 18.4496C218.833 18.1016 219.415 17.5014 219.813 16.6491C220.218 15.7969 220.42 14.6108 220.42 13.0909C220.42 11.571 220.214 10.3849 219.803 9.53267C219.398 8.6804 218.801 8.08025 218.013 7.73224C217.232 7.38423 216.273 7.21023 215.136 7.21023H213.048V18.9716ZM237.053 24.2983C235.306 24.2983 233.8 23.9645 232.536 23.2969C231.279 22.6222 230.309 21.6562 229.628 20.3991C228.953 19.1349 228.616 17.6222 228.616 15.8608C228.616 14.1705 228.956 12.6932 229.638 11.429C230.32 10.1648 231.282 9.18111 232.525 8.47798C233.768 7.77486 235.235 7.4233 236.925 7.4233C238.161 7.4233 239.28 7.61506 240.281 7.99858C241.282 8.3821 242.138 8.93963 242.849 9.67116C243.559 10.3956 244.106 11.2763 244.489 12.3132C244.873 13.3501 245.064 14.5185 245.064 15.8182V17.1818H230.448V13.9432H239.653C239.645 13.4744 239.525 13.0625 239.29 12.7074C239.063 12.3452 238.754 12.0646 238.363 11.8658C237.98 11.6598 237.543 11.5568 237.053 11.5568C236.577 11.5568 236.14 11.6598 235.743 11.8658C235.345 12.0646 235.025 12.3416 234.784 12.6967C234.55 13.0518 234.425 13.4673 234.411 13.9432V17.4375C234.411 17.9631 234.521 18.4318 234.741 18.8438C234.961 19.2557 235.278 19.5788 235.689 19.8132C236.101 20.0476 236.599 20.1648 237.181 20.1648C237.586 20.1648 237.955 20.108 238.289 19.9943C238.63 19.8807 238.921 19.7173 239.162 19.5043C239.404 19.2841 239.581 19.0213 239.695 18.7159H245.064C244.88 19.8523 244.443 20.8395 243.754 21.6776C243.065 22.5085 242.153 23.1548 241.016 23.6165C239.887 24.071 238.566 24.2983 237.053 24.2983ZM262.422 12.9631H257.01C256.981 12.6293 256.864 12.3416 256.658 12.1001C256.452 11.8587 256.186 11.674 255.859 11.5462C255.539 11.4112 255.184 11.3438 254.794 11.3438C254.289 11.3438 253.856 11.4361 253.494 11.6207C253.132 11.8054 252.954 12.0682 252.961 12.4091C252.954 12.6506 253.057 12.8743 253.27 13.0803C253.49 13.2862 253.913 13.446 254.538 13.5597L257.862 14.1562C259.538 14.4616 260.784 14.9766 261.601 15.701C262.425 16.4183 262.841 17.3807 262.848 18.5881C262.841 19.7528 262.493 20.7649 261.804 21.6243C261.122 22.4766 260.188 23.1371 259.002 23.6058C257.823 24.0675 256.477 24.2983 254.964 24.2983C252.464 24.2983 250.507 23.7869 249.094 22.7642C247.688 21.7415 246.903 20.392 246.74 18.7159H252.578C252.656 19.2344 252.912 19.6357 253.345 19.9197C253.785 20.1967 254.339 20.3352 255.007 20.3352C255.547 20.3352 255.99 20.2429 256.338 20.0582C256.694 19.8736 256.875 19.6108 256.882 19.2699C256.875 18.9574 256.718 18.7088 256.413 18.5241C256.115 18.3395 255.646 18.1903 255.007 18.0767L252.109 17.5653C250.44 17.2741 249.19 16.7202 248.359 15.9034C247.528 15.0866 247.116 14.0355 247.123 12.75C247.116 11.6136 247.414 10.6513 248.018 9.86293C248.629 9.06747 249.499 8.46378 250.628 8.05185C251.765 7.63281 253.11 7.4233 254.666 7.4233C257.031 7.4233 258.895 7.91335 260.259 8.89347C261.63 9.87358 262.35 11.2301 262.422 12.9631ZM265.101 24V7.63636H270.982V24H265.101ZM268.041 5.93182C267.246 5.93182 266.564 5.66903 265.996 5.14347C265.428 4.6179 265.143 3.9858 265.143 3.24716C265.143 2.50852 265.428 1.87642 265.996 1.35085C266.564 0.825284 267.246 0.5625 268.041 0.5625C268.844 0.5625 269.526 0.825284 270.087 1.35085C270.655 1.87642 270.939 2.50852 270.939 3.24716C270.939 3.9858 270.655 4.6179 270.087 5.14347C269.526 5.66903 268.844 5.93182 268.041 5.93182ZM281.861 30.4773C280.221 30.4773 278.814 30.2429 277.643 29.7741C276.478 29.3125 275.572 28.6733 274.926 27.8565C274.287 27.0469 273.928 26.1165 273.85 25.0653H279.518C279.574 25.4134 279.716 25.6939 279.944 25.907C280.171 26.12 280.462 26.2727 280.817 26.3651C281.18 26.4645 281.584 26.5142 282.032 26.5142C282.792 26.5142 283.42 26.3295 283.917 25.9602C284.422 25.5909 284.674 24.9233 284.674 23.9574V21.1875H284.503C284.29 21.7415 283.964 22.2138 283.523 22.6044C283.083 22.9879 282.554 23.2827 281.936 23.4886C281.318 23.6875 280.64 23.7869 279.901 23.7869C278.736 23.7869 277.664 23.517 276.684 22.9773C275.711 22.4375 274.93 21.5817 274.34 20.4098C273.758 19.2379 273.466 17.7074 273.466 15.8182C273.466 13.8437 273.772 12.2386 274.383 11.0028C275.001 9.76704 275.796 8.86151 276.769 8.28622C277.749 7.71094 278.779 7.4233 279.858 7.4233C280.668 7.4233 281.378 7.56534 281.989 7.84943C282.6 8.12642 283.111 8.49929 283.523 8.96804C283.935 9.42969 284.248 9.9375 284.461 10.4915H284.589V7.63636H290.469V23.9574C290.469 25.3423 290.111 26.5178 289.393 27.4837C288.683 28.4567 287.682 29.1989 286.389 29.7102C285.096 30.2216 283.587 30.4773 281.861 30.4773ZM282.074 19.6108C282.614 19.6108 283.076 19.4616 283.459 19.1634C283.85 18.858 284.148 18.4247 284.354 17.8636C284.567 17.2955 284.674 16.6136 284.674 15.8182C284.674 15.0085 284.567 14.3161 284.354 13.7408C284.148 13.1584 283.85 12.7145 283.459 12.4091C283.076 12.0966 282.614 11.9403 282.074 11.9403C281.535 11.9403 281.073 12.0966 280.689 12.4091C280.313 12.7145 280.022 13.1584 279.816 13.7408C279.617 14.3161 279.518 15.0085 279.518 15.8182C279.518 16.6278 279.617 17.3168 279.816 17.8849C280.022 18.446 280.313 18.8757 280.689 19.174C281.073 19.4652 281.535 19.6108 282.074 19.6108ZM299.341 14.7955V24H293.46V7.63636H299.043V10.7472H299.213C299.568 9.71023 300.193 8.89702 301.088 8.30753C301.99 7.71804 303.041 7.4233 304.241 7.4233C305.399 7.4233 306.404 7.68963 307.256 8.2223C308.116 8.74787 308.78 9.4723 309.249 10.3956C309.724 11.3189 309.959 12.3736 309.952 13.5597V24H304.071V14.7955C304.078 13.9858 303.872 13.3501 303.453 12.8885C303.041 12.4268 302.466 12.196 301.727 12.196C301.244 12.196 300.822 12.3026 300.46 12.5156C300.104 12.7216 299.831 13.0199 299.639 13.4105C299.447 13.794 299.348 14.2557 299.341 14.7955Z" fill="white"/>
</svg>
