<svg width="350" height="130" viewBox="0 0 350 130" fill="none" xmlns="http://www.w3.org/2000/svg">
<rect width="350" height="130" fill="#1E1E1E"/>
<path d="M20.4062 105V83.1818H29.8239C31.4432 83.1818 32.8601 83.4766 34.0746 84.0661C35.2891 84.6555 36.2337 85.5043 36.9084 86.6122C37.5831 87.7202 37.9205 89.0483 37.9205 90.5966C37.9205 92.1591 37.5724 93.4766 36.8764 94.549C36.1875 95.6214 35.218 96.4311 33.968 96.978C32.7251 97.5249 31.2727 97.7983 29.6108 97.7983H23.9858V93.196H28.4176C29.1136 93.196 29.7067 93.1108 30.1967 92.9403C30.6939 92.7628 31.0739 92.4822 31.3366 92.0987C31.6065 91.7152 31.7415 91.2145 31.7415 90.5966C31.7415 89.9716 31.6065 89.4638 31.3366 89.0732C31.0739 88.6754 30.6939 88.3842 30.1967 88.1996C29.7067 88.0078 29.1136 87.9119 28.4176 87.9119H26.3295V105H20.4062ZM33.1903 94.9858L38.6449 105H32.2102L26.8835 94.9858H33.1903ZM48.0625 105.298C46.2869 105.298 44.767 104.947 43.5028 104.244C42.2386 103.533 41.2692 102.546 40.5945 101.282C39.9197 100.011 39.5824 98.5369 39.5824 96.8608C39.5824 95.1847 39.9197 93.7145 40.5945 92.4503C41.2692 91.179 42.2386 90.1918 43.5028 89.4886C44.767 88.7784 46.2869 88.4233 48.0625 88.4233C49.8381 88.4233 51.358 88.7784 52.6222 89.4886C53.8864 90.1918 54.8558 91.179 55.5305 92.4503C56.2053 93.7145 56.5426 95.1847 56.5426 96.8608C56.5426 98.5369 56.2053 100.011 55.5305 101.282C54.8558 102.546 53.8864 103.533 52.6222 104.244C51.358 104.947 49.8381 105.298 48.0625 105.298ZM48.1051 100.952C48.6023 100.952 49.032 100.785 49.3942 100.451C49.7564 100.117 50.0369 99.6413 50.2358 99.0234C50.4347 98.4055 50.5341 97.6705 50.5341 96.8182C50.5341 95.9588 50.4347 95.2237 50.2358 94.6129C50.0369 93.995 49.7564 93.5192 49.3942 93.1854C49.032 92.8516 48.6023 92.6847 48.1051 92.6847C47.5795 92.6847 47.1286 92.8516 46.7521 93.1854C46.3757 93.5192 46.0881 93.995 45.8892 94.6129C45.6903 95.2237 45.5909 95.9588 45.5909 96.8182C45.5909 97.6705 45.6903 98.4055 45.8892 99.0234C46.0881 99.6413 46.3757 100.117 46.7521 100.451C47.1286 100.785 47.5795 100.952 48.1051 100.952ZM63.4886 105.256C62.4446 105.256 61.5213 105.085 60.7188 104.744C59.9233 104.396 59.2983 103.871 58.8438 103.168C58.3892 102.464 58.1619 101.57 58.1619 100.483C58.1619 99.5881 58.3146 98.8246 58.62 98.1925C58.9254 97.5533 59.3516 97.0312 59.8984 96.6264C60.4453 96.2216 61.081 95.9126 61.8054 95.6996C62.5369 95.4865 63.3253 95.348 64.1705 95.2841C65.0866 95.2131 65.8217 95.1278 66.3757 95.0284C66.9368 94.9219 67.3416 94.7763 67.5902 94.5916C67.8388 94.3999 67.9631 94.1477 67.9631 93.8352V93.7926C67.9631 93.3665 67.7997 93.0398 67.473 92.8125C67.1463 92.5852 66.7273 92.4716 66.2159 92.4716C65.6548 92.4716 65.1967 92.5959 64.8416 92.8445C64.4936 93.0859 64.2841 93.4588 64.2131 93.9631H58.8011C58.8722 92.9687 59.1882 92.0526 59.7493 91.2145C60.3175 90.3693 61.1449 89.6946 62.2315 89.1903C63.3182 88.679 64.6747 88.4233 66.3011 88.4233C67.473 88.4233 68.5241 88.5618 69.4545 88.8388C70.3849 89.1087 71.1768 89.4886 71.8303 89.9787C72.4837 90.4616 72.9808 91.0298 73.3217 91.6832C73.6697 92.3295 73.8438 93.0327 73.8438 93.7926V105H68.3466V102.699H68.2188C67.892 103.31 67.4943 103.803 67.0256 104.18C66.5639 104.556 66.0348 104.83 65.4382 105C64.8487 105.17 64.1989 105.256 63.4886 105.256ZM65.4062 101.548C65.8537 101.548 66.2727 101.456 66.6634 101.271C67.0611 101.087 67.3842 100.82 67.6328 100.472C67.8814 100.124 68.0057 99.7017 68.0057 99.2045V97.8409C67.8494 97.9048 67.6825 97.9652 67.505 98.022C67.3345 98.0788 67.1499 98.1321 66.951 98.1818C66.7592 98.2315 66.5533 98.2777 66.3331 98.3203C66.12 98.3629 65.8963 98.402 65.6619 98.4375C65.2074 98.5085 64.8345 98.6257 64.5433 98.7891C64.2592 98.9453 64.0462 99.1406 63.9041 99.375C63.7692 99.6023 63.7017 99.858 63.7017 100.142C63.7017 100.597 63.8615 100.945 64.1811 101.186C64.5007 101.428 64.9091 101.548 65.4062 101.548ZM82.5769 105.213C81.4121 105.213 80.3397 104.908 79.3596 104.297C78.3865 103.686 77.6053 102.759 77.0158 101.516C76.4334 100.273 76.1422 98.7074 76.1422 96.8182C76.1422 94.8437 76.4476 93.2386 77.0584 92.0028C77.6763 90.767 78.4718 89.8615 79.4448 89.2862C80.4249 88.7109 81.4547 88.4233 82.5343 88.4233C83.3439 88.4233 84.0542 88.5653 84.665 88.8494C85.2757 89.1264 85.7871 89.4993 86.199 89.968C86.611 90.4297 86.9235 90.9375 87.1365 91.4915H87.2218V83.1818H93.1025V105H87.2644V102.315H87.1365C86.9093 102.869 86.5826 103.366 86.1564 103.807C85.7374 104.24 85.226 104.585 84.6223 104.84C84.0257 105.089 83.3439 105.213 82.5769 105.213ZM84.7502 100.696C85.29 100.696 85.7516 100.54 86.1351 100.227C86.5257 99.9077 86.824 99.4602 87.03 98.8849C87.2431 98.3026 87.3496 97.6136 87.3496 96.8182C87.3496 96.0085 87.2431 95.3161 87.03 94.7408C86.824 94.1584 86.5257 93.7145 86.1351 93.4091C85.7516 93.0966 85.29 92.9403 84.7502 92.9403C84.2104 92.9403 83.7488 93.0966 83.3652 93.4091C82.9888 93.7145 82.6976 94.1584 82.4917 94.7408C82.2928 95.3161 82.1934 96.0085 82.1934 96.8182C82.1934 97.6278 82.2928 98.3239 82.4917 98.9062C82.6976 99.4815 82.9888 99.9254 83.3652 100.238C83.7488 100.543 84.2104 100.696 84.7502 100.696ZM95.9895 105V88.6364H101.572V91.7472H101.742C102.083 90.7244 102.666 89.9148 103.49 89.3182C104.313 88.7216 105.294 88.4233 106.43 88.4233C107.58 88.4233 108.571 88.7287 109.402 89.3395C110.233 89.9432 110.734 90.7457 110.904 91.7472H111.075C111.352 90.7457 111.941 89.9432 112.843 89.3395C113.745 88.7287 114.803 88.4233 116.018 88.4233C117.588 88.4233 118.859 88.9276 119.832 89.9361C120.812 90.9446 121.302 92.2869 121.302 93.9631V105H115.421V95.4545C115.421 94.7372 115.24 94.1761 114.878 93.7713C114.516 93.3594 114.029 93.1534 113.419 93.1534C112.815 93.1534 112.335 93.3594 111.98 93.7713C111.632 94.1761 111.458 94.7372 111.458 95.4545V105H105.833V95.4545C105.833 94.7372 105.652 94.1761 105.29 93.7713C104.928 93.3594 104.441 93.1534 103.83 93.1534C103.426 93.1534 103.078 93.2457 102.786 93.4304C102.495 93.6151 102.268 93.8814 102.105 94.2294C101.948 94.5703 101.87 94.9787 101.87 95.4545V105H95.9895ZM128.762 105.256C127.718 105.256 126.795 105.085 125.992 104.744C125.197 104.396 124.572 103.871 124.117 103.168C123.663 102.464 123.435 101.57 123.435 100.483C123.435 99.5881 123.588 98.8246 123.893 98.1925C124.199 97.5533 124.625 97.0312 125.172 96.6264C125.719 96.2216 126.354 95.9126 127.079 95.6996C127.81 95.4865 128.599 95.348 129.444 95.2841C130.36 95.2131 131.095 95.1278 131.649 95.0284C132.21 94.9219 132.615 94.7763 132.864 94.5916C133.112 94.3999 133.237 94.1477 133.237 93.8352V93.7926C133.237 93.3665 133.073 93.0398 132.746 92.8125C132.42 92.5852 132.001 92.4716 131.489 92.4716C130.928 92.4716 130.47 92.5959 130.115 92.8445C129.767 93.0859 129.558 93.4588 129.487 93.9631H124.075C124.146 92.9687 124.462 92.0526 125.023 91.2145C125.591 90.3693 126.418 89.6946 127.505 89.1903C128.592 88.679 129.948 88.4233 131.575 88.4233C132.746 88.4233 133.798 88.5618 134.728 88.8388C135.658 89.1087 136.45 89.4886 137.104 89.9787C137.757 90.4616 138.254 91.0298 138.595 91.6832C138.943 92.3295 139.117 93.0327 139.117 93.7926V105H133.62V102.699H133.492C133.165 103.31 132.768 103.803 132.299 104.18C131.837 104.556 131.308 104.83 130.712 105C130.122 105.17 129.472 105.256 128.762 105.256ZM130.68 101.548C131.127 101.548 131.546 101.456 131.937 101.271C132.335 101.087 132.658 100.82 132.906 100.472C133.155 100.124 133.279 99.7017 133.279 99.2045V97.8409C133.123 97.9048 132.956 97.9652 132.778 98.022C132.608 98.0788 132.423 98.1321 132.224 98.1818C132.033 98.2315 131.827 98.2777 131.607 98.3203C131.393 98.3629 131.17 98.402 130.935 98.4375C130.481 98.5085 130.108 98.6257 129.817 98.7891C129.533 98.9453 129.32 99.1406 129.178 99.375C129.043 99.6023 128.975 99.858 128.975 100.142C128.975 100.597 129.135 100.945 129.455 101.186C129.774 101.428 130.183 101.548 130.68 101.548ZM141.927 111.136V88.6364H147.765V91.4915H147.893C148.106 90.9375 148.419 90.4297 148.83 89.968C149.242 89.4993 149.754 89.1264 150.365 88.8494C150.975 88.5653 151.686 88.4233 152.495 88.4233C153.575 88.4233 154.601 88.7109 155.574 89.2862C156.554 89.8615 157.35 90.767 157.96 92.0028C158.578 93.2386 158.887 94.8437 158.887 96.8182C158.887 98.7074 158.593 100.273 158.003 101.516C157.421 102.759 156.639 103.686 155.659 104.297C154.686 104.908 153.617 105.213 152.453 105.213C151.686 105.213 151 105.089 150.396 104.84C149.8 104.585 149.289 104.24 148.862 103.807C148.443 103.366 148.12 102.869 147.893 102.315H147.808V111.136H141.927ZM147.68 96.8182C147.68 97.6136 147.783 98.3026 147.989 98.8849C148.202 99.4602 148.5 99.9077 148.884 100.227C149.274 100.54 149.74 100.696 150.279 100.696C150.819 100.696 151.277 100.543 151.654 100.238C152.037 99.9254 152.328 99.4815 152.527 98.9062C152.733 98.3239 152.836 97.6278 152.836 96.8182C152.836 96.0085 152.733 95.3161 152.527 94.7408C152.328 94.1584 152.037 93.7145 151.654 93.4091C151.277 93.0966 150.819 92.9403 150.279 92.9403C149.74 92.9403 149.274 93.0966 148.884 93.4091C148.5 93.7145 148.202 94.1584 147.989 94.7408C147.783 95.3161 147.68 96.0085 147.68 96.8182ZM164.547 105.341C163.723 105.341 163.016 105.053 162.427 104.478C161.844 103.896 161.557 103.189 161.564 102.358C161.557 101.548 161.844 100.856 162.427 100.281C163.016 99.7053 163.723 99.4176 164.547 99.4176C165.328 99.4176 166.017 99.7053 166.614 100.281C167.217 100.856 167.523 101.548 167.53 102.358C167.523 102.912 167.377 103.416 167.093 103.871C166.816 104.318 166.454 104.677 166.006 104.947C165.559 105.21 165.072 105.341 164.547 105.341ZM164.547 94.3466C163.723 94.3466 163.016 94.0589 162.427 93.4837C161.844 92.9013 161.557 92.1946 161.564 91.3636C161.557 90.554 161.844 89.8615 162.427 89.2862C163.016 88.7109 163.723 88.4233 164.547 88.4233C165.328 88.4233 166.017 88.7109 166.614 89.2862C167.217 89.8615 167.523 90.554 167.53 91.3636C167.523 91.9176 167.377 92.4219 167.093 92.8764C166.816 93.3239 166.454 93.6825 166.006 93.9524C165.559 94.2152 165.072 94.3466 164.547 94.3466Z" fill="#FAFF08"/>
<path d="M189.529 83.1818H195.452V97.1591C195.452 98.821 195.055 100.259 194.259 101.474C193.471 102.681 192.37 103.615 190.957 104.276C189.543 104.929 187.903 105.256 186.035 105.256C184.153 105.256 182.505 104.929 181.092 104.276C179.678 103.615 178.577 102.681 177.789 101.474C177.008 100.259 176.617 98.821 176.617 97.1591V83.1818H182.54V96.6477C182.54 97.3224 182.69 97.9261 182.988 98.4588C183.286 98.9844 183.698 99.3963 184.224 99.6946C184.756 99.9929 185.36 100.142 186.035 100.142C186.717 100.142 187.32 99.9929 187.846 99.6946C188.371 99.3963 188.783 98.9844 189.082 98.4588C189.38 97.9261 189.529 97.3224 189.529 96.6477V83.1818ZM204.617 83.1818L208.197 89.5312H208.367L211.989 83.1818H218.594L212.074 94.0909L218.85 105H212.074L208.367 98.5227H208.197L204.489 105H197.756L204.447 94.0909L197.969 83.1818H204.617ZM235.52 105H227.125V83.1818H235.435C237.679 83.1818 239.618 83.6186 241.251 84.4922C242.892 85.3587 244.156 86.6087 245.044 88.2422C245.939 89.8686 246.386 91.8182 246.386 94.0909C246.386 96.3636 245.942 98.3168 245.055 99.9503C244.167 101.577 242.91 102.827 241.283 103.7C239.657 104.567 237.736 105 235.52 105ZM233.048 99.9716H235.307C236.386 99.9716 237.306 99.7976 238.066 99.4496C238.833 99.1016 239.415 98.5014 239.813 97.6491C240.218 96.7969 240.42 95.6108 240.42 94.0909C240.42 92.571 240.214 91.3849 239.803 90.5327C239.398 89.6804 238.801 89.0803 238.013 88.7322C237.232 88.3842 236.273 88.2102 235.136 88.2102H233.048V99.9716ZM257.053 105.298C255.306 105.298 253.8 104.964 252.536 104.297C251.279 103.622 250.309 102.656 249.628 101.399C248.953 100.135 248.616 98.6222 248.616 96.8608C248.616 95.1705 248.956 93.6932 249.638 92.429C250.32 91.1648 251.282 90.1811 252.525 89.478C253.768 88.7749 255.235 88.4233 256.925 88.4233C258.161 88.4233 259.28 88.6151 260.281 88.9986C261.282 89.3821 262.138 89.9396 262.849 90.6712C263.559 91.3956 264.106 92.2763 264.489 93.3132C264.873 94.3501 265.064 95.5185 265.064 96.8182V98.1818H250.448V94.9432H259.653C259.645 94.4744 259.525 94.0625 259.29 93.7074C259.063 93.3452 258.754 93.0646 258.363 92.8658C257.98 92.6598 257.543 92.5568 257.053 92.5568C256.577 92.5568 256.14 92.6598 255.743 92.8658C255.345 93.0646 255.025 93.3416 254.784 93.6967C254.55 94.0518 254.425 94.4673 254.411 94.9432V98.4375C254.411 98.9631 254.521 99.4318 254.741 99.8438C254.961 100.256 255.278 100.579 255.689 100.813C256.101 101.048 256.599 101.165 257.181 101.165C257.586 101.165 257.955 101.108 258.289 100.994C258.63 100.881 258.921 100.717 259.162 100.504C259.404 100.284 259.581 100.021 259.695 99.7159H265.064C264.88 100.852 264.443 101.839 263.754 102.678C263.065 103.509 262.153 104.155 261.016 104.616C259.887 105.071 258.566 105.298 257.053 105.298ZM282.422 93.9631H277.01C276.981 93.6293 276.864 93.3416 276.658 93.1001C276.452 92.8587 276.186 92.674 275.859 92.5462C275.539 92.4112 275.184 92.3438 274.794 92.3438C274.289 92.3438 273.856 92.4361 273.494 92.6207C273.132 92.8054 272.954 93.0682 272.961 93.4091C272.954 93.6506 273.057 93.8743 273.27 94.0803C273.49 94.2862 273.913 94.446 274.538 94.5597L277.862 95.1562C279.538 95.4616 280.784 95.9766 281.601 96.701C282.425 97.4183 282.841 98.3807 282.848 99.5881C282.841 100.753 282.493 101.765 281.804 102.624C281.122 103.477 280.188 104.137 279.002 104.606C277.823 105.067 276.477 105.298 274.964 105.298C272.464 105.298 270.507 104.787 269.094 103.764C267.688 102.741 266.903 101.392 266.74 99.7159H272.578C272.656 100.234 272.912 100.636 273.345 100.92C273.785 101.197 274.339 101.335 275.007 101.335C275.547 101.335 275.99 101.243 276.338 101.058C276.694 100.874 276.875 100.611 276.882 100.27C276.875 99.9574 276.718 99.7088 276.413 99.5241C276.115 99.3395 275.646 99.1903 275.007 99.0767L272.109 98.5653C270.44 98.2741 269.19 97.7202 268.359 96.9034C267.528 96.0866 267.116 95.0355 267.123 93.75C267.116 92.6136 267.414 91.6513 268.018 90.8629C268.629 90.0675 269.499 89.4638 270.628 89.0518C271.765 88.6328 273.11 88.4233 274.666 88.4233C277.031 88.4233 278.895 88.9134 280.259 89.8935C281.63 90.8736 282.35 92.2301 282.422 93.9631ZM285.101 105V88.6364H290.982V105H285.101ZM288.041 86.9318C287.246 86.9318 286.564 86.669 285.996 86.1435C285.428 85.6179 285.143 84.9858 285.143 84.2472C285.143 83.5085 285.428 82.8764 285.996 82.3509C286.564 81.8253 287.246 81.5625 288.041 81.5625C288.844 81.5625 289.526 81.8253 290.087 82.3509C290.655 82.8764 290.939 83.5085 290.939 84.2472C290.939 84.9858 290.655 85.6179 290.087 86.1435C289.526 86.669 288.844 86.9318 288.041 86.9318ZM301.861 111.477C300.221 111.477 298.814 111.243 297.643 110.774C296.478 110.312 295.572 109.673 294.926 108.857C294.287 108.047 293.928 107.116 293.85 106.065H299.518C299.574 106.413 299.716 106.694 299.944 106.907C300.171 107.12 300.462 107.273 300.817 107.365C301.18 107.464 301.584 107.514 302.032 107.514C302.792 107.514 303.42 107.33 303.917 106.96C304.422 106.591 304.674 105.923 304.674 104.957V102.188H304.503C304.29 102.741 303.964 103.214 303.523 103.604C303.083 103.988 302.554 104.283 301.936 104.489C301.318 104.687 300.64 104.787 299.901 104.787C298.736 104.787 297.664 104.517 296.684 103.977C295.711 103.437 294.93 102.582 294.34 101.41C293.758 100.238 293.466 98.7074 293.466 96.8182C293.466 94.8437 293.772 93.2386 294.383 92.0028C295.001 90.767 295.796 89.8615 296.769 89.2862C297.749 88.7109 298.779 88.4233 299.858 88.4233C300.668 88.4233 301.378 88.5653 301.989 88.8494C302.6 89.1264 303.111 89.4993 303.523 89.968C303.935 90.4297 304.248 90.9375 304.461 91.4915H304.589V88.6364H310.469V104.957C310.469 106.342 310.111 107.518 309.393 108.484C308.683 109.457 307.682 110.199 306.389 110.71C305.096 111.222 303.587 111.477 301.861 111.477ZM302.074 100.611C302.614 100.611 303.076 100.462 303.459 100.163C303.85 99.858 304.148 99.4247 304.354 98.8636C304.567 98.2955 304.674 97.6136 304.674 96.8182C304.674 96.0085 304.567 95.3161 304.354 94.7408C304.148 94.1584 303.85 93.7145 303.459 93.4091C303.076 93.0966 302.614 92.9403 302.074 92.9403C301.535 92.9403 301.073 93.0966 300.689 93.4091C300.313 93.7145 300.022 94.1584 299.816 94.7408C299.617 95.3161 299.518 96.0085 299.518 96.8182C299.518 97.6278 299.617 98.3168 299.816 98.8849C300.022 99.446 300.313 99.8757 300.689 100.174C301.073 100.465 301.535 100.611 302.074 100.611ZM319.341 95.7955V105H313.46V88.6364H319.043V91.7472H319.213C319.568 90.7102 320.193 89.897 321.088 89.3075C321.99 88.718 323.041 88.4233 324.241 88.4233C325.399 88.4233 326.404 88.6896 327.256 89.2223C328.116 89.7479 328.78 90.4723 329.249 91.3956C329.724 92.3189 329.959 93.3736 329.952 94.5597V105H324.071V95.7955C324.078 94.9858 323.872 94.3501 323.453 93.8885C323.041 93.4268 322.466 93.196 321.727 93.196C321.244 93.196 320.822 93.3026 320.46 93.5156C320.104 93.7216 319.831 94.0199 319.639 94.4105C319.447 94.794 319.348 95.2557 319.341 95.7955Z" fill="#1E1E1E"/>
<path d="M155.406 40V18.1818H164.824C166.443 18.1818 167.86 18.4766 169.075 19.0661C170.289 19.6555 171.234 20.5043 171.908 21.6122C172.583 22.7202 172.92 24.0483 172.92 25.5966C172.92 27.1591 172.572 28.4766 171.876 29.549C171.188 30.6214 170.218 31.4311 168.968 31.978C167.725 32.5249 166.273 32.7983 164.611 32.7983H158.986V28.196H163.418C164.114 28.196 164.707 28.1108 165.197 27.9403C165.694 27.7628 166.074 27.4822 166.337 27.0987C166.607 26.7152 166.741 26.2145 166.741 25.5966C166.741 24.9716 166.607 24.4638 166.337 24.0732C166.074 23.6754 165.694 23.3842 165.197 23.1996C164.707 23.0078 164.114 22.9119 163.418 22.9119H161.33V40H155.406ZM168.19 29.9858L173.645 40H167.21L161.884 29.9858L168.19 29.9858Z" fill="#FAFF08"/>
<path d="M183.84 40H175.445V18.1818H183.755C185.999 18.1818 187.938 18.6186 189.572 19.4922C191.212 20.3587 192.477 21.6087 193.364 23.2422C194.259 24.8686 194.707 26.8182 194.707 29.0909C194.707 31.3636 194.263 33.3168 193.375 34.9503C192.487 36.5767 191.23 37.8267 189.604 38.7003C187.977 39.5668 186.056 40 183.84 40ZM181.369 34.9716H183.627C184.707 34.9716 185.626 34.7976 186.386 34.4496C187.153 34.1016 187.736 33.5014 188.134 32.6491C188.538 31.7969 188.741 30.6108 188.741 29.0909C188.741 27.571 188.535 26.3849 188.123 25.5327C187.718 24.6804 187.121 24.0803 186.333 23.7322C185.552 23.3842 184.593 23.2102 183.457 23.2102L181.369 23.2102V34.9716Z" fill="#1E1E1E"/>
<path d="M152.406 43.1818H159.778L164.849 55.5398H165.105L170.176 43.1818L177.548 43.1818V65H171.753V52.3864H171.582L166.724 64.8295H163.23L158.372 52.3011H158.202V65H152.406V43.1818Z" fill="#1E1E1E"/>
<path d="M180.355 65V43.1818H189.773C191.392 43.1818 192.809 43.5014 194.024 44.1406C195.238 44.7798 196.183 45.6783 196.858 46.8359C197.532 47.9936 197.87 49.3466 197.87 50.8949C197.87 52.4574 197.522 53.8104 196.826 54.9538C196.137 56.0973 195.167 56.978 193.917 57.5959C192.674 58.2138 191.222 58.5227 189.56 58.5227L183.935 58.5227V53.9205L188.367 53.9205C189.063 53.9205 189.656 53.7997 190.146 53.5582C190.643 53.3097 191.023 52.9581 191.286 52.5036C191.556 52.049 191.691 51.5128 191.691 50.8949C191.691 50.2699 191.556 49.7372 191.286 49.2969C191.023 48.8494 190.643 48.5085 190.146 48.2741C189.656 48.0327 189.063 47.9119 188.367 47.9119H186.279V65H180.355Z" fill="#FAFF08"/>
</svg>
