<svg width="259" height="60" viewBox="0 0 259 60" fill="none" xmlns="http://www.w3.org/2000/svg">
<path d="M84.52 21.68V44H77.68V40.96C76.9867 41.9467 76.04 42.7467 74.84 43.36C73.6667 43.9467 72.36 44.24 70.92 44.24C69.2133 44.24 67.7067 43.8667 66.4 43.12C65.0933 42.3467 64.08 41.24 63.36 39.8C62.64 38.36 62.28 36.6667 62.28 34.72V21.68H69.08V33.8C69.08 35.2933 69.4667 36.4533 70.24 37.28C71.0133 38.1067 72.0533 38.52 73.36 38.52C74.6933 38.52 75.7467 38.1067 76.52 37.28C77.2933 36.4533 77.68 35.2933 77.68 33.8V21.68H84.52ZM102.633 44L98.3531 37.8L94.7531 44H87.3531L94.7131 32.6L87.1531 21.68H94.8331L99.1131 27.84L102.713 21.68H110.113L102.633 32.92L110.313 44H102.633ZM120.065 32.8C120.065 30.5067 120.492 28.4933 121.345 26.76C122.225 25.0267 123.412 23.6933 124.905 22.76C126.399 21.8267 128.065 21.36 129.905 21.36C131.372 21.36 132.705 21.6667 133.905 22.28C135.132 22.8933 136.092 23.72 136.785 24.76V14.4H143.625V44H136.785V40.8C136.145 41.8667 135.225 42.72 134.025 43.36C132.852 44 131.479 44.32 129.905 44.32C128.065 44.32 126.399 43.8533 124.905 42.92C123.412 41.96 122.225 40.6133 121.345 38.88C120.492 37.12 120.065 35.0933 120.065 32.8ZM136.785 32.84C136.785 31.1333 136.305 29.7867 135.345 28.8C134.412 27.8133 133.265 27.32 131.905 27.32C130.545 27.32 129.385 27.8133 128.425 28.8C127.492 29.76 127.025 31.0933 127.025 32.8C127.025 34.5067 127.492 35.8667 128.425 36.88C129.385 37.8667 130.545 38.36 131.905 38.36C133.265 38.36 134.412 37.8667 135.345 36.88C136.305 35.8933 136.785 34.5467 136.785 32.84ZM169.614 32.48C169.614 33.12 169.574 33.7867 169.494 34.48H154.014C154.12 35.8667 154.56 36.9333 155.334 37.68C156.134 38.4 157.107 38.76 158.254 38.76C159.96 38.76 161.147 38.04 161.814 36.6H169.094C168.72 38.0667 168.04 39.3867 167.054 40.56C166.094 41.7333 164.88 42.6533 163.414 43.32C161.947 43.9867 160.307 44.32 158.494 44.32C156.307 44.32 154.36 43.8533 152.654 42.92C150.947 41.9867 149.614 40.6533 148.654 38.92C147.694 37.1867 147.214 35.16 147.214 32.84C147.214 30.52 147.68 28.4933 148.614 26.76C149.574 25.0267 150.907 23.6933 152.614 22.76C154.32 21.8267 156.28 21.36 158.494 21.36C160.654 21.36 162.574 21.8133 164.254 22.72C165.934 23.6267 167.24 24.92 168.174 26.6C169.134 28.28 169.614 30.24 169.614 32.48ZM162.614 30.68C162.614 29.5067 162.214 28.5733 161.414 27.88C160.614 27.1867 159.614 26.84 158.414 26.84C157.267 26.84 156.294 27.1733 155.494 27.84C154.72 28.5067 154.24 29.4533 154.054 30.68H162.614ZM182.302 44.32C180.356 44.32 178.622 43.9867 177.102 43.32C175.582 42.6533 174.382 41.7467 173.502 40.6C172.622 39.4267 172.129 38.12 172.022 36.68H178.782C178.862 37.4533 179.222 38.08 179.862 38.56C180.502 39.04 181.289 39.28 182.222 39.28C183.076 39.28 183.729 39.12 184.182 38.8C184.662 38.4533 184.902 38.0133 184.902 37.48C184.902 36.84 184.569 36.3733 183.902 36.08C183.236 35.76 182.156 35.4133 180.662 35.04C179.062 34.6667 177.729 34.28 176.662 33.88C175.596 33.4533 174.676 32.8 173.902 31.92C173.129 31.0133 172.742 29.8 172.742 28.28C172.742 27 173.089 25.84 173.782 24.8C174.502 23.7333 175.542 22.8933 176.902 22.28C178.289 21.6667 179.929 21.36 181.822 21.36C184.622 21.36 186.822 22.0533 188.422 23.44C190.049 24.8267 190.982 26.6667 191.222 28.96H184.902C184.796 28.1867 184.449 27.5733 183.862 27.12C183.302 26.6667 182.556 26.44 181.622 26.44C180.822 26.44 180.209 26.6 179.782 26.92C179.356 27.2133 179.142 27.6267 179.142 28.16C179.142 28.8 179.476 29.28 180.142 29.6C180.836 29.92 181.902 30.24 183.342 30.56C184.996 30.9867 186.342 31.4133 187.382 31.84C188.422 32.24 189.329 32.9067 190.102 33.84C190.902 34.7467 191.316 35.9733 191.342 37.52C191.342 38.8267 190.969 40 190.222 41.04C189.502 42.0533 188.449 42.8533 187.062 43.44C185.702 44.0267 184.116 44.32 182.302 44.32ZM198.967 19.36C197.767 19.36 196.78 19.0133 196.007 18.32C195.26 17.6 194.887 16.72 194.887 15.68C194.887 14.6133 195.26 13.7333 196.007 13.04C196.78 12.32 197.767 11.96 198.967 11.96C200.14 11.96 201.1 12.32 201.847 13.04C202.62 13.7333 203.007 14.6133 203.007 15.68C203.007 16.72 202.62 17.6 201.847 18.32C201.1 19.0133 200.14 19.36 198.967 19.36ZM202.367 21.68V44H195.527V21.68H202.367ZM215.804 21.36C217.377 21.36 218.75 21.68 219.924 22.32C221.124 22.96 222.044 23.8 222.684 24.84V21.68H229.524V43.96C229.524 46.0133 229.11 47.8667 228.284 49.52C227.484 51.2 226.244 52.5333 224.564 53.52C222.91 54.5067 220.844 55 218.364 55C215.057 55 212.377 54.2133 210.324 52.64C208.27 51.0933 207.097 48.9867 206.804 46.32H213.564C213.777 47.1733 214.284 47.84 215.084 48.32C215.884 48.8267 216.87 49.08 218.044 49.08C219.457 49.08 220.577 48.6667 221.404 47.84C222.257 47.04 222.684 45.7467 222.684 43.96V40.8C222.017 41.84 221.097 42.6933 219.924 43.36C218.75 44 217.377 44.32 215.804 44.32C213.964 44.32 212.297 43.8533 210.804 42.92C209.31 41.96 208.124 40.6133 207.244 38.88C206.39 37.12 205.964 35.0933 205.964 32.8C205.964 30.5067 206.39 28.4933 207.244 26.76C208.124 25.0267 209.31 23.6933 210.804 22.76C212.297 21.8267 213.964 21.36 215.804 21.36ZM222.684 32.84C222.684 31.1333 222.204 29.7867 221.244 28.8C220.31 27.8133 219.164 27.32 217.804 27.32C216.444 27.32 215.284 27.8133 214.324 28.8C213.39 29.76 212.924 31.0933 212.924 32.8C212.924 34.5067 213.39 35.8667 214.324 36.88C215.284 37.8667 216.444 38.36 217.804 38.36C219.164 38.36 220.31 37.8667 221.244 36.88C222.204 35.8933 222.684 34.5467 222.684 32.84ZM248.072 21.44C250.686 21.44 252.766 22.2933 254.312 24C255.886 25.68 256.672 28 256.672 30.96V44H249.872V31.88C249.872 30.3867 249.486 29.2267 248.712 28.4C247.939 27.5733 246.899 27.16 245.592 27.16C244.286 27.16 243.246 27.5733 242.472 28.4C241.699 29.2267 241.312 30.3867 241.312 31.88V44H234.472V21.68H241.312V24.64C242.006 23.6533 242.939 22.88 244.112 22.32C245.286 21.7333 246.606 21.44 248.072 21.44Z" fill="#DAFF01"/>
<circle cx="20" cy="30" r="20" fill="#DAFF01"/>
</svg>
