<svg width="150" height="50" viewBox="0 0 150 50" fill="none" xmlns="http://www.w3.org/2000/svg">
<rect width="150" height="50" fill="#DAFF01"/>
<path d="M45.74 27.6H49.1V22.48H45.98V20.08H51.62V27.6H54.5V30H45.74V27.6ZM52.24 17.14C52.24 17.4067 52.1867 17.66 52.08 17.9C51.9867 18.1267 51.8533 18.3267 51.68 18.5C51.5067 18.66 51.3 18.7933 51.06 18.9C50.8333 18.9933 50.5933 19.04 50.34 19.04C50.0733 19.04 49.8267 18.9933 49.6 18.9C49.3733 18.7933 49.1733 18.66 49 18.5C48.8267 18.3267 48.6867 18.1267 48.58 17.9C48.4867 17.66 48.44 17.4067 48.44 17.14C48.44 16.8733 48.4867 16.6267 48.58 16.4C48.6867 16.16 48.8267 15.96 49 15.8C49.1733 15.6267 49.3733 15.4933 49.6 15.4C49.8267 15.2933 50.0733 15.24 50.34 15.24C50.5933 15.24 50.8333 15.2933 51.06 15.4C51.3 15.4933 51.5067 15.6267 51.68 15.8C51.8533 15.96 51.9867 16.16 52.08 16.4C52.1867 16.6267 52.24 16.8733 52.24 17.14ZM60.3261 30H57.8061V20.08H60.3261V21.56H60.6861C60.9128 21 61.2794 20.5667 61.7861 20.26C62.2928 19.9533 62.8861 19.8 63.5661 19.8C64.0461 19.8 64.4928 19.88 64.9061 20.04C65.3328 20.1867 65.7061 20.42 66.0261 20.74C66.3461 21.06 66.5928 21.4667 66.7661 21.96C66.9528 22.4533 67.0461 23.04 67.0461 23.72V30H64.5261V24.36C64.5261 23.6533 64.3528 23.1 64.0061 22.7C63.6728 22.2867 63.1861 22.08 62.5461 22.08C61.7994 22.08 61.2394 22.3333 60.8661 22.84C60.5061 23.3333 60.3261 24 60.3261 24.84V30ZM77.1722 28.56H76.8122C76.7055 28.7867 76.5722 29.0067 76.4122 29.22C76.2655 29.42 76.0655 29.6 75.8122 29.76C75.5722 29.92 75.2789 30.0467 74.9322 30.14C74.5989 30.2333 74.1922 30.28 73.7122 30.28C73.0989 30.28 72.5255 30.1733 71.9922 29.96C71.4722 29.7333 71.0122 29.4067 70.6122 28.98C70.2255 28.54 69.9189 28.0067 69.6922 27.38C69.4789 26.7533 69.3722 26.0333 69.3722 25.22V24.86C69.3722 24.06 69.4855 23.3467 69.7122 22.72C69.9522 22.0933 70.2722 21.5667 70.6722 21.14C71.0855 20.7 71.5589 20.3667 72.0922 20.14C72.6389 19.9133 73.2122 19.8 73.8122 19.8C74.6122 19.8 75.2455 19.9533 75.7122 20.26C76.1789 20.5533 76.5455 20.9733 76.8122 21.52H77.1722V16H79.6922V30H77.1722V28.56ZM74.5322 27.88C75.3189 27.88 75.9522 27.6333 76.4322 27.14C76.9255 26.6333 77.1722 25.9733 77.1722 25.16V24.92C77.1722 24.1067 76.9255 23.4533 76.4322 22.96C75.9522 22.4533 75.3189 22.2 74.5322 22.2C73.7455 22.2 73.1055 22.4467 72.6122 22.94C72.1322 23.42 71.8922 24.08 71.8922 24.92V25.16C71.8922 26 72.1322 26.6667 72.6122 27.16C73.1055 27.64 73.7455 27.88 74.5322 27.88ZM84.5183 25.86C84.5316 26.1533 84.5983 26.4267 84.7183 26.68C84.8516 26.92 85.0249 27.1333 85.2383 27.32C85.4649 27.4933 85.7183 27.6333 85.9983 27.74C86.2916 27.8333 86.5983 27.88 86.9183 27.88C87.5449 27.88 88.0249 27.7733 88.3583 27.56C88.6916 27.3333 88.9316 27.0667 89.0783 26.76L91.2383 27.96C91.1183 28.2133 90.9516 28.48 90.7383 28.76C90.5249 29.0267 90.2449 29.2733 89.8983 29.5C89.5649 29.7267 89.1516 29.9133 88.6583 30.06C88.1783 30.2067 87.6116 30.28 86.9583 30.28C86.2116 30.28 85.5316 30.16 84.9183 29.92C84.3049 29.68 83.7716 29.3333 83.3183 28.88C82.8783 28.4267 82.5316 27.8733 82.2783 27.22C82.0383 26.5667 81.9183 25.8267 81.9183 25V24.88C81.9183 24.12 82.0449 23.4267 82.2983 22.8C82.5649 22.1733 82.9249 21.64 83.3783 21.2C83.8316 20.76 84.3583 20.42 84.9583 20.18C85.5716 19.9267 86.2249 19.8 86.9183 19.8C87.7716 19.8 88.5049 19.9533 89.1183 20.26C89.7316 20.5533 90.2383 20.9333 90.6383 21.4C91.0383 21.8533 91.3316 22.36 91.5183 22.92C91.7049 23.4667 91.7983 24 91.7983 24.52V25.86H84.5183ZM86.8983 22.08C86.2583 22.08 85.7383 22.2467 85.3383 22.58C84.9383 22.9 84.6783 23.2733 84.5583 23.7H89.2383C89.1583 23.2333 88.9049 22.8467 88.4783 22.54C88.0649 22.2333 87.5383 22.08 86.8983 22.08ZM101.124 20.08H103.904L101.504 24.74V25.1L104.044 30H101.144L99.2844 26.12H98.9244L97.0644 30H94.1644L96.7044 25.1V24.74L94.2844 20.08H97.0844L98.9244 23.72H99.2844L101.124 20.08Z" fill="#282828"/>
</svg>
