<svg width="260" height="80" viewBox="0 0 260 80" fill="none" xmlns="http://www.w3.org/2000/svg">
<g clip-path="url(#clip0_11_22)">
<rect width="260" height="80" rx="20" fill="#D7D7D7"/>
<path d="M84.328 27.824C83.248 27.824 82.36 27.512 81.664 26.888C80.992 26.24 80.656 25.448 80.656 24.512C80.656 23.552 80.992 22.76 81.664 22.136C82.36 21.488 83.248 21.164 84.328 21.164C85.384 21.164 86.248 21.488 86.92 22.136C87.616 22.76 87.964 23.552 87.964 24.512C87.964 25.448 87.616 26.24 86.92 26.888C86.248 27.512 85.384 27.824 84.328 27.824ZM87.388 29.912V50H81.232V29.912H87.388ZM104.089 29.696C106.441 29.696 108.313 30.464 109.705 32C111.121 33.512 111.829 35.6 111.829 38.264V50H105.709V39.092C105.709 37.748 105.361 36.704 104.665 35.96C103.969 35.216 103.033 34.844 101.857 34.844C100.681 34.844 99.7452 35.216 99.0492 35.96C98.3532 36.704 98.0052 37.748 98.0052 39.092V50H91.8492V29.912H98.0052V32.576C98.6292 31.688 99.4692 30.992 100.525 30.488C101.581 29.96 102.769 29.696 104.089 29.696ZM114.883 39.92C114.883 37.856 115.267 36.044 116.035 34.484C116.827 32.924 117.895 31.724 119.239 30.884C120.583 30.044 122.083 29.624 123.739 29.624C125.059 29.624 126.259 29.9 127.339 30.452C128.443 31.004 129.307 31.748 129.931 32.684V23.36H136.087V50H129.931V47.12C129.355 48.08 128.527 48.848 127.447 49.424C126.391 50 125.155 50.288 123.739 50.288C122.083 50.288 120.583 49.868 119.239 49.028C117.895 48.164 116.827 46.952 116.035 45.392C115.267 43.808 114.883 41.984 114.883 39.92ZM129.931 39.956C129.931 38.42 129.499 37.208 128.635 36.32C127.795 35.432 126.763 34.988 125.539 34.988C124.315 34.988 123.271 35.432 122.407 36.32C121.567 37.184 121.147 38.384 121.147 39.92C121.147 41.456 121.567 42.68 122.407 43.592C123.271 44.48 124.315 44.924 125.539 44.924C126.763 44.924 127.795 44.48 128.635 43.592C129.499 42.704 129.931 41.492 129.931 39.956ZM159.477 39.632C159.477 40.208 159.441 40.808 159.369 41.432H145.437C145.533 42.68 145.929 43.64 146.625 44.312C147.345 44.96 148.221 45.284 149.253 45.284C150.789 45.284 151.857 44.636 152.457 43.34H159.009C158.673 44.66 158.061 45.848 157.173 46.904C156.309 47.96 155.217 48.788 153.897 49.388C152.577 49.988 151.101 50.288 149.469 50.288C147.501 50.288 145.749 49.868 144.213 49.028C142.677 48.188 141.477 46.988 140.613 45.428C139.749 43.868 139.317 42.044 139.317 39.956C139.317 37.868 139.737 36.044 140.577 34.484C141.441 32.924 142.641 31.724 144.177 30.884C145.713 30.044 147.477 29.624 149.469 29.624C151.413 29.624 153.141 30.032 154.653 30.848C156.165 31.664 157.341 32.828 158.181 34.34C159.045 35.852 159.477 37.616 159.477 39.632ZM153.177 38.012C153.177 36.956 152.817 36.116 152.097 35.492C151.377 34.868 150.477 34.556 149.397 34.556C148.365 34.556 147.489 34.856 146.769 35.456C146.073 36.056 145.641 36.908 145.473 38.012H153.177ZM174.604 50L170.752 44.42L167.512 50H160.852L167.476 39.74L160.672 29.912H167.584L171.436 35.456L174.676 29.912H181.336L174.604 40.028L181.516 50H174.604Z" fill="#282828"/>
</g>
<defs>
<clipPath id="clip0_11_22">
<rect width="260" height="80" fill="white"/>
</clipPath>
</defs>
</svg>
