<svg width="300" height="100" viewBox="0 0 300 100" fill="none" xmlns="http://www.w3.org/2000/svg">
<rect width="300" height="100" rx="20" fill="#282828"/>
<path d="M98.92 39.36C97.72 39.36 96.7333 39.0133 95.96 38.32C95.2133 37.6 94.84 36.72 94.84 35.68C94.84 34.6133 95.2133 33.7333 95.96 33.04C96.7333 32.32 97.72 31.96 98.92 31.96C100.093 31.96 101.053 32.32 101.8 33.04C102.573 33.7333 102.96 34.6133 102.96 35.68C102.96 36.72 102.573 37.6 101.8 38.32C101.053 39.0133 100.093 39.36 98.92 39.36ZM102.32 41.68V64H95.48V41.68H102.32ZM120.877 41.44C123.49 41.44 125.57 42.2933 127.117 44C128.69 45.68 129.477 48 129.477 50.96V64H122.677V51.88C122.677 50.3867 122.29 49.2267 121.517 48.4C120.744 47.5733 119.704 47.16 118.397 47.16C117.09 47.16 116.05 47.5733 115.277 48.4C114.504 49.2267 114.117 50.3867 114.117 51.88V64H107.277V41.68H114.117V44.64C114.81 43.6533 115.744 42.88 116.917 42.32C118.09 41.7333 119.41 41.44 120.877 41.44ZM132.87 52.8C132.87 50.5067 133.297 48.4933 134.15 46.76C135.03 45.0267 136.217 43.6933 137.71 42.76C139.203 41.8267 140.87 41.36 142.71 41.36C144.177 41.36 145.51 41.6667 146.71 42.28C147.937 42.8933 148.897 43.72 149.59 44.76V34.4H156.43V64H149.59V60.8C148.95 61.8667 148.03 62.72 146.83 63.36C145.657 64 144.283 64.32 142.71 64.32C140.87 64.32 139.203 63.8533 137.71 62.92C136.217 61.96 135.03 60.6133 134.15 58.88C133.297 57.12 132.87 55.0933 132.87 52.8ZM149.59 52.84C149.59 51.1333 149.11 49.7867 148.15 48.8C147.217 47.8133 146.07 47.32 144.71 47.32C143.35 47.32 142.19 47.8133 141.23 48.8C140.297 49.76 139.83 51.0933 139.83 52.8C139.83 54.5067 140.297 55.8667 141.23 56.88C142.19 57.8667 143.35 58.36 144.71 58.36C146.07 58.36 147.217 57.8667 148.15 56.88C149.11 55.8933 149.59 54.5467 149.59 52.84ZM182.418 52.48C182.418 53.12 182.378 53.7867 182.298 54.48H166.818C166.925 55.8667 167.365 56.9333 168.138 57.68C168.938 58.4 169.912 58.76 171.058 58.76C172.765 58.76 173.952 58.04 174.618 56.6H181.898C181.525 58.0667 180.845 59.3867 179.858 60.56C178.898 61.7333 177.685 62.6533 176.218 63.32C174.752 63.9867 173.112 64.32 171.298 64.32C169.112 64.32 167.165 63.8533 165.458 62.92C163.752 61.9867 162.418 60.6533 161.458 58.92C160.498 57.1867 160.018 55.16 160.018 52.84C160.018 50.52 160.485 48.4933 161.418 46.76C162.378 45.0267 163.712 43.6933 165.418 42.76C167.125 41.8267 169.085 41.36 171.298 41.36C173.458 41.36 175.378 41.8133 177.058 42.72C178.738 43.6267 180.045 44.92 180.978 46.6C181.938 48.28 182.418 50.24 182.418 52.48ZM175.418 50.68C175.418 49.5067 175.018 48.5733 174.218 47.88C173.418 47.1867 172.418 46.84 171.218 46.84C170.072 46.84 169.098 47.1733 168.298 47.84C167.525 48.5067 167.045 49.4533 166.858 50.68H175.418ZM199.227 64L194.947 57.8L191.347 64H183.947L191.307 52.6L183.747 41.68H191.427L195.707 47.84L199.307 41.68H206.707L199.227 52.92L206.907 64H199.227Z" fill="#DAFF01"/>
</svg>
