<svg width="260" height="80" viewBox="0 0 260 80" fill="none" xmlns="http://www.w3.org/2000/svg">
<circle cx="40" cy="40" r="20" fill="#D7D7D7"/>
<path d="M39.9488 25.0292C39.0412 25.1117 38.0305 25.3661 37.4942 25.6549C37.2604 25.7786 36.9751 26.0227 36.9029 26.1602C36.8651 26.229 36.8101 26.2668 36.6897 26.2943C36.4525 26.3562 35.9162 26.614 35.6653 26.7928C35.1874 27.1366 34.8058 27.6763 34.6717 28.2057C34.4517 29.0824 34.5617 30.8735 34.9811 33.1562C35.0465 33.5137 35.1324 33.995 35.1702 34.2219C35.3937 35.5111 36.0194 36.8931 36.8169 37.842L37.0232 38.0895V38.643C37.0232 39.138 37.0163 39.1999 36.9579 39.2515C36.9235 39.2859 36.7963 39.4268 36.6794 39.5678C36.3219 39.9941 35.6618 40.4547 34.7233 40.9326C34.1904 41.2007 33.6094 41.4379 32.4509 41.8539C30.261 42.6412 29.3878 43.0744 28.769 43.6932C28.4665 43.9957 28.2877 44.3223 28.1364 44.8448C27.7376 46.2303 28.188 47.4782 29.821 49.5134C31.3061 51.3595 32.8738 52.6418 34.878 53.6388C36.786 54.5911 38.0958 54.9349 40.0485 54.9933C41.8981 55.0483 43.397 54.7664 45.0334 54.0582C46.0475 53.6182 46.7179 53.2572 47.5774 52.6831C48.3852 52.1434 48.9628 51.6655 49.7432 50.8817C51.1527 49.4722 52.2184 47.9836 52.5931 46.9178C52.8888 46.0687 52.8647 45.2505 52.5244 44.4254C52.3903 44.1023 52.2631 43.9166 52.0018 43.6588C51.4277 43.0881 50.4961 42.6274 48.4024 41.8711C47.1167 41.407 46.6319 41.211 45.9616 40.8707C45.1193 40.4479 44.5968 40.1281 44.2323 39.8153C43.8061 39.4509 43.586 39.2893 43.5517 39.3134C43.5345 39.3237 43.5207 39.0865 43.5207 38.7736V38.2201L43.6995 38.0242C44.5142 37.1372 45.2259 35.6865 45.4631 34.4282C45.494 34.2563 45.5422 34.0707 45.5662 34.0157C45.7416 33.6169 45.9684 32.7196 46.0613 32.0561C46.3775 29.8421 45.8928 28.0476 44.5968 26.645C43.476 25.4245 41.8465 24.8607 39.9488 25.0292ZM45.6075 32.613C45.6006 32.6852 45.5937 32.6337 45.5937 32.503C45.5937 32.3689 45.6006 32.3139 45.6075 32.3724C45.6144 32.4343 45.6144 32.5443 45.6075 32.613Z" fill="#282828"/>
<path d="M90.068 29.912V50H83.912V47.264C83.288 48.152 82.436 48.872 81.356 49.424C80.3 49.952 79.124 50.216 77.828 50.216C76.292 50.216 74.936 49.88 73.76 49.208C72.584 48.512 71.672 47.516 71.024 46.22C70.376 44.924 70.052 43.4 70.052 41.648V29.912H76.172V40.82C76.172 42.164 76.52 43.208 77.216 43.952C77.912 44.696 78.848 45.068 80.024 45.068C81.224 45.068 82.172 44.696 82.868 43.952C83.564 43.208 83.912 42.164 83.912 40.82V29.912H90.068ZM106.37 50L102.518 44.42L99.2778 50H92.6178L99.2418 39.74L92.4378 29.912H99.3498L103.202 35.456L106.442 29.912H113.102L106.37 40.028L113.282 50H106.37ZM114.43 39.92C114.43 37.856 114.814 36.044 115.582 34.484C116.374 32.924 117.442 31.724 118.786 30.884C120.13 30.044 121.63 29.624 123.286 29.624C124.606 29.624 125.806 29.9 126.886 30.452C127.99 31.004 128.854 31.748 129.478 32.684V23.36H135.634V50H129.478V47.12C128.902 48.08 128.074 48.848 126.994 49.424C125.938 50 124.702 50.288 123.286 50.288C121.63 50.288 120.13 49.868 118.786 49.028C117.442 48.164 116.374 46.952 115.582 45.392C114.814 43.808 114.43 41.984 114.43 39.92ZM129.478 39.956C129.478 38.42 129.046 37.208 128.182 36.32C127.342 35.432 126.31 34.988 125.086 34.988C123.862 34.988 122.818 35.432 121.954 36.32C121.114 37.184 120.694 38.384 120.694 39.92C120.694 41.456 121.114 42.68 121.954 43.592C122.818 44.48 123.862 44.924 125.086 44.924C126.31 44.924 127.342 44.48 128.182 43.592C129.046 42.704 129.478 41.492 129.478 39.956ZM159.023 39.632C159.023 40.208 158.987 40.808 158.915 41.432H144.983C145.079 42.68 145.475 43.64 146.171 44.312C146.891 44.96 147.767 45.284 148.799 45.284C150.335 45.284 151.403 44.636 152.003 43.34H158.555C158.219 44.66 157.607 45.848 156.719 46.904C155.855 47.96 154.763 48.788 153.443 49.388C152.123 49.988 150.647 50.288 149.015 50.288C147.047 50.288 145.295 49.868 143.759 49.028C142.223 48.188 141.023 46.988 140.159 45.428C139.295 43.868 138.863 42.044 138.863 39.956C138.863 37.868 139.283 36.044 140.123 34.484C140.987 32.924 142.187 31.724 143.723 30.884C145.259 30.044 147.023 29.624 149.015 29.624C150.959 29.624 152.687 30.032 154.199 30.848C155.711 31.664 156.887 32.828 157.727 34.34C158.591 35.852 159.023 37.616 159.023 39.632ZM152.723 38.012C152.723 36.956 152.363 36.116 151.643 35.492C150.923 34.868 150.023 34.556 148.943 34.556C147.911 34.556 147.035 34.856 146.315 35.456C145.619 36.056 145.187 36.908 145.019 38.012H152.723ZM170.443 50.288C168.691 50.288 167.131 49.988 165.763 49.388C164.395 48.788 163.315 47.972 162.523 46.94C161.731 45.884 161.287 44.708 161.191 43.412H167.275C167.347 44.108 167.671 44.672 168.247 45.104C168.823 45.536 169.531 45.752 170.371 45.752C171.139 45.752 171.727 45.608 172.135 45.32C172.567 45.008 172.783 44.612 172.783 44.132C172.783 43.556 172.483 43.136 171.883 42.872C171.283 42.584 170.311 42.272 168.967 41.936C167.527 41.6 166.327 41.252 165.367 40.892C164.407 40.508 163.579 39.92 162.883 39.128C162.187 38.312 161.839 37.22 161.839 35.852C161.839 34.7 162.151 33.656 162.775 32.72C163.423 31.76 164.359 31.004 165.583 30.452C166.831 29.9 168.307 29.624 170.011 29.624C172.531 29.624 174.511 30.248 175.951 31.496C177.415 32.744 178.255 34.4 178.471 36.464H172.783C172.687 35.768 172.375 35.216 171.847 34.808C171.343 34.4 170.671 34.196 169.831 34.196C169.111 34.196 168.559 34.34 168.175 34.628C167.791 34.892 167.599 35.264 167.599 35.744C167.599 36.32 167.899 36.752 168.499 37.04C169.123 37.328 170.083 37.616 171.379 37.904C172.867 38.288 174.079 38.672 175.015 39.056C175.951 39.416 176.767 40.016 177.463 40.856C178.183 41.672 178.555 42.776 178.579 44.168C178.579 45.344 178.243 46.4 177.571 47.336C176.923 48.248 175.975 48.968 174.727 49.496C173.503 50.024 172.075 50.288 170.443 50.288ZM185.441 27.824C184.361 27.824 183.473 27.512 182.777 26.888C182.105 26.24 181.769 25.448 181.769 24.512C181.769 23.552 182.105 22.76 182.777 22.136C183.473 21.488 184.361 21.164 185.441 21.164C186.497 21.164 187.361 21.488 188.033 22.136C188.729 22.76 189.077 23.552 189.077 24.512C189.077 25.448 188.729 26.24 188.033 26.888C187.361 27.512 186.497 27.824 185.441 27.824ZM188.501 29.912V50H182.345V29.912H188.501ZM200.594 29.624C202.01 29.624 203.246 29.912 204.302 30.488C205.382 31.064 206.21 31.82 206.786 32.756V29.912H212.942V49.964C212.942 51.812 212.57 53.48 211.826 54.968C211.106 56.48 209.99 57.68 208.478 58.568C206.99 59.456 205.13 59.9 202.898 59.9C199.922 59.9 197.51 59.192 195.662 57.776C193.814 56.384 192.758 54.488 192.494 52.088H198.578C198.77 52.856 199.226 53.456 199.946 53.888C200.666 54.344 201.554 54.572 202.61 54.572C203.882 54.572 204.89 54.2 205.634 53.456C206.402 52.736 206.786 51.572 206.786 49.964V47.12C206.186 48.056 205.358 48.824 204.302 49.424C203.246 50 202.01 50.288 200.594 50.288C198.938 50.288 197.438 49.868 196.094 49.028C194.75 48.164 193.682 46.952 192.89 45.392C192.122 43.808 191.738 41.984 191.738 39.92C191.738 37.856 192.122 36.044 192.89 34.484C193.682 32.924 194.75 31.724 196.094 30.884C197.438 30.044 198.938 29.624 200.594 29.624ZM206.786 39.956C206.786 38.42 206.354 37.208 205.49 36.32C204.65 35.432 203.618 34.988 202.394 34.988C201.17 34.988 200.126 35.432 199.262 36.32C198.422 37.184 198.002 38.384 198.002 39.92C198.002 41.456 198.422 42.68 199.262 43.592C200.126 44.48 201.17 44.924 202.394 44.924C203.618 44.924 204.65 44.48 205.49 43.592C206.354 42.704 206.786 41.492 206.786 39.956ZM229.636 29.696C231.988 29.696 233.86 30.464 235.252 32C236.668 33.512 237.376 35.6 237.376 38.264V50H231.256V39.092C231.256 37.748 230.908 36.704 230.212 35.96C229.516 35.216 228.58 34.844 227.404 34.844C226.228 34.844 225.292 35.216 224.596 35.96C223.9 36.704 223.552 37.748 223.552 39.092V50H217.396V29.912H223.552V32.576C224.176 31.688 225.016 30.992 226.072 30.488C227.128 29.96 228.316 29.696 229.636 29.696Z" fill="#D7D7D7"/>
</svg>
